STARTFONT 2.1
FONT -Monotype-Bembo-Regular-I-Normal--18-180-72-72-P-89-iso8859-1
SIZE 18 72 72
FONTBOUNDINGBOX 24 21 -3 -4

STARTPROPERTIES 22
FOUNDRY "Monotype"
FAMILY_NAME "Bembo"
WEIGHT_NAME "Regular"
SLANT "I"
SETWIDTH_NAME "Normal"
ADD_STYLE_NAME ""
PIXEL_SIZE 18
POINT_SIZE 180
RESOLUTION_X 72
RESOLUTION_Y 72
SPACING "P"
AVERAGE_WIDTH 89
CHARSET_REGISTRY "iso8859"
CHARSET_ENCODING "1"
COPYRIGHT "Copyright (c) 1996 Monotype Typography Ltd."
CAP_HEIGHT 13
X_HEIGHT 8
WEIGHT 10
QUAD_WIDTH 11
DEFAULT_CHAR 32
FONT_DESCENT 5
FONT_ASCENT 17
ENDPROPERTIES

CHARS 191

STARTCHAR space
ENCODING 32
SWIDTH 278 0
DWIDTH 6 0
BBX 0 0 0 0
BITMAP
ENDCHAR

STARTCHAR exclam
ENCODING 33
SWIDTH 292 0
DWIDTH 6 0
BBX 4 12 2 0
BITMAP
30
30
30
30
60
60
60
60
60
00
C0
C0
ENDCHAR

STARTCHAR quotedbl
ENCODING 34
SWIDTH 417 0
DWIDTH 8 0
BBX 5 4 3 8
BITMAP
D8
D8
48
48
ENDCHAR

STARTCHAR numbersign
ENCODING 35
SWIDTH 668 0
DWIDTH 13 0
BBX 11 12 1 0
BITMAP
0880
0880
0880
7FE0
1100
1100
1100
1100
FFC0
2200
2200
2200
ENDCHAR

STARTCHAR dollar
ENCODING 36
SWIDTH 459 0
DWIDTH 9 0
BBX 7 15 1 -2
BITMAP
08
1C
2A
6A
68
68
30
38
18
2C
AC
AC
78
20
20
ENDCHAR

STARTCHAR percent
ENCODING 37
SWIDTH 823 0
DWIDTH 16 0
BBX 13 12 2 0
BITMAP
3010
5820
D840
D880
D900
D230
6258
04D8
08D8
10D8
20D0
4060
ENDCHAR

STARTCHAR ampersand
ENCODING 38
SWIDTH 708 0
DWIDTH 13 0
BBX 13 12 2 0
BITMAP
0F80
10C0
3040
3000
1000
3C08
41F0
C260
C060
C040
6180
3E00
ENDCHAR

STARTCHAR quoteright
ENCODING 39
SWIDTH 292 0
DWIDTH 6 0
BBX 3 5 2 7
BITMAP
60
60
20
40
80
ENDCHAR

STARTCHAR parenleft
ENCODING 40
SWIDTH 281 0
DWIDTH 5 0
BBX 5 16 2 -4
BITMAP
08
10
20
20
40
40
40
80
80
80
80
80
80
40
40
40
ENDCHAR

STARTCHAR parenright
ENCODING 41
SWIDTH 281 0
DWIDTH 5 0
BBX 4 16 1 -4
BITMAP
20
20
20
10
10
10
10
10
10
10
10
10
20
20
40
80
ENDCHAR

STARTCHAR asterisk
ENCODING 42
SWIDTH 500 0
DWIDTH 10 0
BBX 9 8 2 5
BITMAP
0800
0800
C800
7800
1F80
3C00
6400
4600
ENDCHAR

STARTCHAR plus
ENCODING 43
SWIDTH 667 0
DWIDTH 13 0
BBX 9 9 3 2
BITMAP
0800
0800
0800
0800
FF80
0800
0800
0800
0800
ENDCHAR

STARTCHAR comma
ENCODING 44
SWIDTH 292 0
DWIDTH 6 0
BBX 3 5 1 -3
BITMAP
60
60
20
40
80
ENDCHAR

STARTCHAR minus
ENCODING 45
SWIDTH 667 0
DWIDTH 13 0
BBX 10 1 2 6
BITMAP
FFC0
ENDCHAR

STARTCHAR period
ENCODING 46
SWIDTH 292 0
DWIDTH 6 0
BBX 2 2 2 0
BITMAP
C0
C0
ENDCHAR

STARTCHAR slash
ENCODING 47
SWIDTH 458 0
DWIDTH 9 0
BBX 8 13 1 -1
BITMAP
03
03
06
06
0C
0C
18
18
30
30
60
60
C0
ENDCHAR

STARTCHAR zero
ENCODING 48
SWIDTH 510 0
DWIDTH 10 0
BBX 8 12 2 0
BITMAP
0E
33
33
63
63
63
C6
C6
C6
CC
CC
78
ENDCHAR

STARTCHAR one
ENCODING 49
SWIDTH 510 0
DWIDTH 10 0
BBX 6 12 2 0
BITMAP
0C
1C
2C
0C
18
18
18
18
30
30
30
FC
ENDCHAR

STARTCHAR two
ENCODING 50
SWIDTH 510 0
DWIDTH 10 0
BBX 8 12 1 0
BITMAP
1E
23
23
03
03
02
04
08
10
21
7E
FE
ENDCHAR

STARTCHAR three
ENCODING 51
SWIDTH 510 0
DWIDTH 10 0
BBX 7 12 2 0
BITMAP
1C
26
06
04
1C
26
06
06
06
04
88
70
ENDCHAR

STARTCHAR four
ENCODING 52
SWIDTH 510 0
DWIDTH 10 0
BBX 8 12 2 0
BITMAP
01
03
07
0B
16
26
46
FF
0C
0C
0C
0C
ENDCHAR

STARTCHAR five
ENCODING 53
SWIDTH 510 0
DWIDTH 10 0
BBX 9 12 1 0
BITMAP
0F80
0F80
0800
1000
1E00
1300
0300
0300
0300
0200
C400
7800
ENDCHAR

STARTCHAR six
ENCODING 54
SWIDTH 510 0
DWIDTH 10 0
BBX 7 12 2 0
BITMAP
06
18
30
20
5C
66
C6
C6
C6
CC
CC
70
ENDCHAR

STARTCHAR seven
ENCODING 55
SWIDTH 510 0
DWIDTH 10 0
BBX 7 12 3 0
BITMAP
FE
FE
84
04
08
08
10
10
20
20
40
40
ENDCHAR

STARTCHAR eight
ENCODING 56
SWIDTH 510 0
DWIDTH 10 0
BBX 8 12 2 0
BITMAP
0E
11
31
31
32
1C
2C
46
86
86
84
78
ENDCHAR

STARTCHAR nine
ENCODING 57
SWIDTH 510 0
DWIDTH 10 0
BBX 7 12 3 0
BITMAP
1C
66
66
C6
C6
C6
CC
74
08
18
30
C0
ENDCHAR

STARTCHAR colon
ENCODING 58
SWIDTH 292 0
DWIDTH 6 0
BBX 3 8 2 0
BITMAP
60
60
00
00
00
00
C0
C0
ENDCHAR

STARTCHAR semicolon
ENCODING 59
SWIDTH 292 0
DWIDTH 6 0
BBX 4 11 1 -3
BITMAP
30
30
00
00
00
00
60
60
20
40
80
ENDCHAR

STARTCHAR less
ENCODING 60
SWIDTH 667 0
DWIDTH 13 0
BBX 10 9 2 2
BITMAP
00C0
0300
0C00
3000
C000
3000
0C00
0300
00C0
ENDCHAR

STARTCHAR equal
ENCODING 61
SWIDTH 667 0
DWIDTH 13 0
BBX 10 4 2 5
BITMAP
FFC0
0000
0000
FFC0
ENDCHAR

STARTCHAR greater
ENCODING 62
SWIDTH 667 0
DWIDTH 13 0
BBX 10 9 3 2
BITMAP
C000
3000
0C00
0300
00C0
0300
0C00
3000
C000
ENDCHAR

STARTCHAR question
ENCODING 63
SWIDTH 396 0
DWIDTH 8 0
BBX 5 12 3 0
BITMAP
30
68
08
08
18
30
60
40
40
00
C0
C0
ENDCHAR

STARTCHAR at
ENCODING 64
SWIDTH 917 0
DWIDTH 17 0
BBX 16 17 1 -4
BITMAP
03F0
0C0C
1002
2002
20D9
4131
4231
8431
8C62
8C62
8CC4
8DC8
4670
4000
2002
180C
07F0
ENDCHAR

STARTCHAR A
ENCODING 65
SWIDTH 698 0
DWIDTH 13 0
BBX 14 12 0 0
BITMAP
0030
0070
00B0
00B0
0130
0230
07F0
0430
0830
1030
2030
F0FC
ENDCHAR

STARTCHAR B
ENCODING 66
SWIDTH 615 0
DWIDTH 12 0
BBX 11 12 0 0
BITMAP
3FC0
0C60
0C60
0C60
18C0
1F80
18C0
1860
3060
3060
30C0
FF80
ENDCHAR

STARTCHAR C
ENCODING 67
SWIDTH 729 0
DWIDTH 14 0
BBX 12 12 2 0
BITMAP
07D0
1C30
3010
6000
6000
C000
C000
C000
C000
6020
20C0
1F80
ENDCHAR

STARTCHAR D
ENCODING 68
SWIDTH 760 0
DWIDTH 14 0
BBX 14 12 0 0
BITMAP
3FE0
0C38
0C18
0C0C
180C
180C
180C
1818
3018
3030
30E0
FF80
ENDCHAR

STARTCHAR E
ENCODING 69
SWIDTH 625 0
DWIDTH 12 0
BBX 12 12 0 0
BITMAP
3FF0
0C10
0C10
0C00
1840
1F80
1880
1800
3000
3010
3020
FFE0
ENDCHAR

STARTCHAR F
ENCODING 70
SWIDTH 563 0
DWIDTH 11 0
BBX 12 12 0 0
BITMAP
3FF0
0C10
0C10
0C00
1840
1F80
1880
1800
3000
3000
3000
FC00
ENDCHAR

STARTCHAR G
ENCODING 71
SWIDTH 781 0
DWIDTH 15 0
BBX 13 12 2 0
BITMAP
07E8
1C38
3010
6000
6000
C000
C000
C000
C0F0
6060
20C0
1F40
ENDCHAR

STARTCHAR H
ENCODING 72
SWIDTH 760 0
DWIDTH 14 0
BBX 16 12 0 0
BITMAP
3F3F
0C0C
0C0C
0C0C
1818
1FF8
1818
1818
3030
3030
3030
FCFC
ENDCHAR

STARTCHAR I
ENCODING 73
SWIDTH 323 0
DWIDTH 6 0
BBX 8 12 0 0
BITMAP
3F
0C
0C
0C
18
18
18
18
30
30
30
FC
ENDCHAR

STARTCHAR J
ENCODING 74
SWIDTH 302 0
DWIDTH 6 0
BBX 10 16 -2 -4
BITMAP
0FC0
0300
0300
0300
0300
0600
0600
0600
0600
0600
0C00
0C00
0C00
0800
D000
E000
ENDCHAR

STARTCHAR K
ENCODING 75
SWIDTH 708 0
DWIDTH 13 0
BBX 13 12 0 0
BITMAP
3F18
0C20
0CC0
0D00
1A00
1C00
1E00
1B00
3180
30C0
3060
FC78
ENDCHAR

STARTCHAR L
ENCODING 76
SWIDTH 583 0
DWIDTH 11 0
BBX 11 12 0 0
BITMAP
3F00
0C00
0C00
0C00
1800
1800
1800
1800
3000
3020
3040
FFC0
ENDCHAR

STARTCHAR M
ENCODING 77
SWIDTH 854 0
DWIDTH 16 0
BBX 19 12 0 0
BITMAP
1F03E0
070380
0B0580
0B0980
130B00
131300
132300
11A300
21C600
218600
218600
F91F80
ENDCHAR

STARTCHAR N
ENCODING 78
SWIDTH 771 0
DWIDTH 15 0
BBX 17 12 0 0
BITMAP
3C0F80
0E0200
0E0200
0B0200
118400
118400
10C400
106400
206800
203800
201800
F81800
ENDCHAR

STARTCHAR O
ENCODING 79
SWIDTH 792 0
DWIDTH 15 0
BBX 13 12 2 0
BITMAP
07C0
1C20
3030
6018
6018
C018
C018
C030
C030
6060
21C0
1F00
ENDCHAR

STARTCHAR P
ENCODING 80
SWIDTH 563 0
DWIDTH 11 0
BBX 12 12 0 0
BITMAP
3FC0
0C60
0C30
0C30
1830
1860
1BC0
1800
3000
3000
3000
FC00
ENDCHAR

STARTCHAR Q
ENCODING 81
SWIDTH 792 0
DWIDTH 15 0
BBX 13 15 2 -3
BITMAP
07C0
1C20
3030
6018
6018
C018
C018
C030
C030
6060
21C0
1F00
0600
0380
00F0
ENDCHAR

STARTCHAR R
ENCODING 82
SWIDTH 698 0
DWIDTH 13 0
BBX 13 12 0 0
BITMAP
3FC0
0C60
0C30
0C30
1830
1860
1FC0
1B00
3180
30C0
3060
FC38
ENDCHAR

STARTCHAR S
ENCODING 83
SWIDTH 531 0
DWIDTH 10 0
BBX 9 12 1 0
BITMAP
0E80
1180
3080
3000
3800
1C00
0E00
0700
0300
8300
C200
BC00
ENDCHAR

STARTCHAR T
ENCODING 84
SWIDTH 656 0
DWIDTH 12 0
BBX 11 13 2 0
BITMAP
4020
7FE0
4620
8620
0600
0C00
0C00
0C00
0C00
1800
1800
1800
7E00
ENDCHAR

STARTCHAR U
ENCODING 85
SWIDTH 729 0
DWIDTH 14 0
BBX 14 12 3 0
BITMAP
FC7C
3010
3010
3010
6020
6020
6020
C040
C040
C040
6180
3E00
ENDCHAR

STARTCHAR V
ENCODING 86
SWIDTH 698 0
DWIDTH 13 0
BBX 14 12 2 0
BITMAP
FC7C
3010
3020
3040
3080
3080
3100
3200
3400
3800
3000
2000
ENDCHAR

STARTCHAR W
ENCODING 87
SWIDTH 958 0
DWIDTH 18 0
BBX 19 12 2 0
BITMAP
FCF3E0
306080
306080
30E100
316200
316200
326400
346800
346800
387000
306000
204000
ENDCHAR

STARTCHAR X
ENCODING 88
SWIDTH 688 0
DWIDTH 13 0
BBX 14 12 0 0
BITMAP
1F3C
0610
0620
0340
0380
0180
0380
04C0
08C0
1060
2060
F9F8
ENDCHAR

STARTCHAR Y
ENCODING 89
SWIDTH 625 0
DWIDTH 12 0
BBX 14 12 1 0
BITMAP
FC7C
3010
1820
1840
0C80
0D00
0600
0600
0600
0C00
0C00
3F00
ENDCHAR

STARTCHAR Z
ENCODING 90
SWIDTH 688 0
DWIDTH 13 0
BBX 13 12 1 0
BITMAP
0FF8
1830
1060
00C0
0180
0300
0600
0C00
1800
3010
6030
FFE0
ENDCHAR

STARTCHAR bracketleft
ENCODING 91
SWIDTH 302 0
DWIDTH 6 0
BBX 7 16 1 -4
BITMAP
1E
18
18
18
30
30
30
30
60
60
60
60
C0
C0
C0
F0
ENDCHAR

STARTCHAR backslash
ENCODING 92
SWIDTH 219 0
DWIDTH 4 0
BBX 5 13 1 -1
BITMAP
C0
C0
C0
60
60
60
60
30
30
30
18
18
18
ENDCHAR

STARTCHAR bracketright
ENCODING 93
SWIDTH 302 0
DWIDTH 6 0
BBX 7 16 0 -4
BITMAP
1E
06
06
06
0C
0C
0C
0C
18
18
18
18
30
30
30
F0
ENDCHAR

STARTCHAR asciicircum
ENCODING 94
SWIDTH 427 0
DWIDTH 8 0
BBX 7 7 2 6
BITMAP
10
10
28
44
44
82
82
ENDCHAR

STARTCHAR underscore
ENCODING 95
SWIDTH 500 0
DWIDTH 10 0
BBX 10 1 0 -2
BITMAP
FFC0
ENDCHAR

STARTCHAR quoteleft
ENCODING 96
SWIDTH 292 0
DWIDTH 6 0
BBX 3 5 3 8
BITMAP
20
40
80
C0
C0
ENDCHAR

STARTCHAR a
ENCODING 97
SWIDTH 406 0
DWIDTH 8 0
BBX 8 8 0 0
BITMAP
1F
33
66
66
CC
DC
ED
CE
ENDCHAR

STARTCHAR b
ENCODING 98
SWIDTH 406 0
DWIDTH 8 0
BBX 7 13 1 0
BITMAP
10
70
30
60
60
6E
76
66
C6
CC
CC
D8
70
ENDCHAR

STARTCHAR c
ENCODING 99
SWIDTH 271 0
DWIDTH 5 0
BBX 6 8 0 0
BITMAP
3C
64
40
C0
C0
C0
C8
70
ENDCHAR

STARTCHAR d
ENCODING 100
SWIDTH 438 0
DWIDTH 8 0
BBX 8 13 0 0
BITMAP
01
07
03
03
03
1E
26
66
46
CC
DC
ED
CE
ENDCHAR

STARTCHAR e
ENCODING 101
SWIDTH 344 0
DWIDTH 7 0
BBX 6 8 1 0
BITMAP
38
6C
48
F0
C0
C0
C8
70
ENDCHAR

STARTCHAR f
ENCODING 102
SWIDTH 229 0
DWIDTH 4 0
BBX 11 17 -3 -4
BITMAP
00E0
0160
0200
0600
0600
0F00
0600
0600
0600
0C00
0C00
0C00
0C00
0800
1800
D000
E000
ENDCHAR

STARTCHAR g
ENCODING 103
SWIDTH 375 0
DWIDTH 7 0
BBX 9 12 -1 -4
BITMAP
0F80
1300
3300
3300
3200
3C00
1000
1800
7C00
CE00
C600
7C00
ENDCHAR

STARTCHAR h
ENCODING 104
SWIDTH 458 0
DWIDTH 9 0
BBX 8 13 1 0
BITMAP
10
70
30
30
30
66
6E
76
66
CC
CC
CD
CE
ENDCHAR

STARTCHAR i
ENCODING 105
SWIDTH 240 0
DWIDTH 5 0
BBX 5 12 0 0
BITMAP
18
18
00
00
70
B0
30
30
30
60
68
70
ENDCHAR

STARTCHAR j
ENCODING 106
SWIDTH 240 0
DWIDTH 5 0
BBX 7 16 -2 -4
BITMAP
06
06
00
00
1C
2C
0C
0C
0C
18
18
18
18
10
D0
E0
ENDCHAR

STARTCHAR k
ENCODING 107
SWIDTH 458 0
DWIDTH 9 0
BBX 8 13 1 0
BITMAP
10
70
30
30
30
66
7A
66
78
F0
D8
CD
C6
ENDCHAR

STARTCHAR l
ENCODING 108
SWIDTH 229 0
DWIDTH 4 0
BBX 4 13 0 0
BITMAP
10
70
30
30
30
60
60
60
60
C0
C0
D0
E0
ENDCHAR

STARTCHAR m
ENCODING 109
SWIDTH 677 0
DWIDTH 13 0
BBX 13 8 0 0
BITMAP
7330
B770
3BB0
3330
6660
6660
6668
6670
ENDCHAR

STARTCHAR n
ENCODING 110
SWIDTH 469 0
DWIDTH 9 0
BBX 9 8 0 0
BITMAP
7300
B700
3B00
3300
6600
6600
6680
6700
ENDCHAR

STARTCHAR o
ENCODING 111
SWIDTH 396 0
DWIDTH 8 0
BBX 6 8 1 0
BITMAP
38
6C
4C
CC
CC
C8
D8
70
ENDCHAR

STARTCHAR p
ENCODING 112
SWIDTH 438 0
DWIDTH 8 0
BBX 9 12 -1 -4
BITMAP
3B00
5D80
1980
1980
3180
3300
3B00
3600
6000
6000
6000
F000
ENDCHAR

STARTCHAR q
ENCODING 113
SWIDTH 417 0
DWIDTH 8 0
BBX 7 12 0 -4
BITMAP
1E
36
66
66
CC
CC
DC
EC
18
18
18
3C
ENDCHAR

STARTCHAR r
ENCODING 114
SWIDTH 271 0
DWIDTH 5 0
BBX 6 8 0 0
BITMAP
6C
EC
70
60
C0
C0
C0
C0
ENDCHAR

STARTCHAR s
ENCODING 115
SWIDTH 302 0
DWIDTH 6 0
BBX 5 8 1 0
BITMAP
38
68
60
60
30
30
B0
E0
ENDCHAR

STARTCHAR t
ENCODING 116
SWIDTH 260 0
DWIDTH 5 0
BBX 5 10 1 0
BITMAP
10
30
F8
60
60
60
C0
C0
D0
E0
ENDCHAR

STARTCHAR u
ENCODING 117
SWIDTH 469 0
DWIDTH 9 0
BBX 9 8 0 0
BITMAP
7300
B300
3300
3300
6600
6E00
7680
6700
ENDCHAR

STARTCHAR v
ENCODING 118
SWIDTH 406 0
DWIDTH 8 0
BBX 8 8 0 0
BITMAP
77
B3
33
33
32
34
38
30
ENDCHAR

STARTCHAR w
ENCODING 119
SWIDTH 604 0
DWIDTH 11 0
BBX 12 8 -1 0
BITMAP
7370
B330
3330
3330
3720
3B40
3B80
3300
ENDCHAR

STARTCHAR x
ENCODING 120
SWIDTH 490 0
DWIDTH 9 0
BBX 10 8 0 0
BITMAP
30C0
5940
1A00
0C00
0C00
1600
A680
C300
ENDCHAR

STARTCHAR y
ENCODING 121
SWIDTH 438 0
DWIDTH 8 0
BBX 8 12 0 -4
BITMAP
67
B3
33
32
32
34
38
30
30
60
60
F0
ENDCHAR

STARTCHAR z
ENCODING 122
SWIDTH 500 0
DWIDTH 10 0
BBX 8 8 1 0
BITMAP
39
5F
06
0C
38
60
FA
9C
ENDCHAR

STARTCHAR braceleft
ENCODING 123
SWIDTH 396 0
DWIDTH 8 0
BBX 5 16 2 -4
BITMAP
08
10
20
20
20
20
40
80
40
20
20
20
20
20
10
08
ENDCHAR

STARTCHAR bar
ENCODING 124
SWIDTH 510 0
DWIDTH 10 0
BBX 1 16 5 -4
BITMAP
80
80
80
80
80
80
80
80
80
80
80
80
80
80
80
80
ENDCHAR

STARTCHAR braceright
ENCODING 125
SWIDTH 396 0
DWIDTH 8 0
BBX 5 16 3 -4
BITMAP
80
40
20
20
20
20
10
08
10
20
20
20
20
20
40
80
ENDCHAR

STARTCHAR asciitilde
ENCODING 126
SWIDTH 542 0
DWIDTH 10 0
BBX 10 3 1 4
BITMAP
7040
8C40
8380
ENDCHAR

STARTCHAR space
ENCODING 160
SWIDTH 278 0
DWIDTH 5 0
BBX 0 0 0 0
BITMAP
ENDCHAR

STARTCHAR exclamdown
ENCODING 161
SWIDTH 292 0
DWIDTH 6 0
BBX 4 13 2 -4
BITMAP
30
30
00
00
60
60
60
60
60
C0
C0
C0
C0
ENDCHAR

STARTCHAR cent
ENCODING 162
SWIDTH 271 0
DWIDTH 5 0
BBX 6 14 0 -3
BITMAP
08
08
08
3C
6C
50
D0
D0
D0
D8
70
20
20
20
ENDCHAR

STARTCHAR sterling
ENCODING 163
SWIDTH 729 0
DWIDTH 14 0
BBX 13 17 0 -4
BITMAP
0078
00D8
0180
0100
0300
0300
0600
0600
0600
0C00
0C00
7F00
1800
3C18
6618
C310
C1E0
ENDCHAR

STARTCHAR currency
ENCODING 164
SWIDTH 667 0
DWIDTH 13 0
BBX 9 9 2 1
BITMAP
9C80
7F00
6300
C180
C180
C180
6300
7F00
9C80
ENDCHAR

STARTCHAR yen
ENCODING 165
SWIDTH 500 0
DWIDTH 10 0
BBX 13 12 -1 0
BITMAP
FCF8
3020
1840
1880
0D00
7FE0
0600
0600
7FC0
0C00
0C00
3F00
ENDCHAR

STARTCHAR brokenbar
ENCODING 166
SWIDTH 510 0
DWIDTH 10 0
BBX 1 16 5 -4
BITMAP
80
80
80
80
80
80
80
00
00
80
80
80
80
80
80
80
ENDCHAR

STARTCHAR section
ENCODING 167
SWIDTH 479 0
DWIDTH 9 0
BBX 11 17 -1 -4
BITMAP
01E0
0660
0400
0C00
1400
1200
1200
1200
1100
0900
0900
0900
0500
0600
0400
CC00
F000
ENDCHAR

STARTCHAR dieresis
ENCODING 168
SWIDTH 333 0
DWIDTH 6 0
BBX 6 2 2 9
BITMAP
CC
CC
ENDCHAR

STARTCHAR copyright
ENCODING 169
SWIDTH 760 0
DWIDTH 14 0
BBX 13 13 1 0
BITMAP
0F80
3060
4010
4790
8C88
9808
9808
9808
8C88
4790
4010
3060
0F80
ENDCHAR

STARTCHAR ordfeminine
ENCODING 170
SWIDTH 260 0
DWIDTH 5 0
BBX 4 5 2 8
BITMAP
30
50
A0
A0
D0
ENDCHAR

STARTCHAR guillemotleft
ENCODING 171
SWIDTH 438 0
DWIDTH 8 0
BBX 8 8 0 0
BITMAP
09
12
24
48
90
90
48
24
ENDCHAR

STARTCHAR logicalnot
ENCODING 172
SWIDTH 667 0
DWIDTH 13 0
BBX 10 5 2 4
BITMAP
FFC0
0040
0040
0040
0040
ENDCHAR

STARTCHAR hyphen
ENCODING 173
SWIDTH 333 0
DWIDTH 6 0
BBX 5 1 1 3
BITMAP
F8
ENDCHAR

STARTCHAR registered
ENCODING 174
SWIDTH 760 0
DWIDTH 14 0
BBX 13 13 1 0
BITMAP
0F80
3060
4010
5F10
8D88
8D88
8F08
8D08
8D88
5ED0
4010
3060
0F80
ENDCHAR

STARTCHAR macron
ENCODING 175
SWIDTH 333 0
DWIDTH 6 0
BBX 6 1 2 10
BITMAP
FC
ENDCHAR

STARTCHAR degree
ENCODING 176
SWIDTH 396 0
DWIDTH 8 0
BBX 5 5 3 7
BITMAP
70
88
88
88
70
ENDCHAR

STARTCHAR plusminus
ENCODING 177
SWIDTH 667 0
DWIDTH 13 0
BBX 9 11 2 0
BITMAP
0800
0800
0800
0800
FF80
0800
0800
0800
0800
0000
FF80
ENDCHAR

STARTCHAR twosuperior
ENCODING 178
SWIDTH 313 0
DWIDTH 6 0
BBX 5 6 2 6
BITMAP
30
48
10
20
40
F0
ENDCHAR

STARTCHAR threesuperior
ENCODING 179
SWIDTH 313 0
DWIDTH 6 0
BBX 4 6 2 6
BITMAP
70
10
60
10
20
C0
ENDCHAR

STARTCHAR acute
ENCODING 180
SWIDTH 333 0
DWIDTH 6 0
BBX 4 3 2 9
BITMAP
30
60
80
ENDCHAR

STARTCHAR mu
ENCODING 181
SWIDTH 500 0
DWIDTH 10 0
BBX 10 12 0 -4
BITMAP
1980
1980
1980
3980
3300
3700
3B40
7380
4000
C000
C000
C000
ENDCHAR

STARTCHAR paragraph
ENCODING 182
SWIDTH 448 0
DWIDTH 9 0
BBX 8 16 1 -4
BITMAP
3F
FA
FA
FA
FA
FA
3A
0A
0A
0A
0A
0A
0A
0A
0A
0A
ENDCHAR

STARTCHAR periodcentered
ENCODING 183
SWIDTH 292 0
DWIDTH 6 0
BBX 2 2 3 5
BITMAP
C0
C0
ENDCHAR

STARTCHAR cedilla
ENCODING 184
SWIDTH 333 0
DWIDTH 6 0
BBX 5 4 0 -4
BITMAP
20
30
18
F0
ENDCHAR

STARTCHAR onesuperior
ENCODING 185
SWIDTH 313 0
DWIDTH 6 0
BBX 3 6 3 6
BITMAP
20
60
20
40
40
E0
ENDCHAR

STARTCHAR ordmasculine
ENCODING 186
SWIDTH 260 0
DWIDTH 5 0
BBX 5 6 1 7
BITMAP
30
48
48
90
90
60
ENDCHAR

STARTCHAR guillemotright
ENCODING 187
SWIDTH 438 0
DWIDTH 8 0
BBX 8 8 1 0
BITMAP
24
12
09
09
12
24
48
90
ENDCHAR

STARTCHAR onequarter
ENCODING 188
SWIDTH 823 0
DWIDTH 16 0
BBX 12 12 2 0
BITMAP
1010
3020
1040
2080
2100
7200
0430
0860
10A0
21F0
4040
8040
ENDCHAR

STARTCHAR onehalf
ENCODING 189
SWIDTH 823 0
DWIDTH 16 0
BBX 12 12 3 0
BITMAP
2010
6020
2040
4080
4100
E200
0460
0890
1020
2040
4080
81E0
ENDCHAR

STARTCHAR threequarters
ENCODING 190
SWIDTH 823 0
DWIDTH 16 0
BBX 12 12 2 0
BITMAP
3810
0820
3040
0880
1100
6200
0430
0860
10A0
21F0
4040
8040
ENDCHAR

STARTCHAR questiondown
ENCODING 191
SWIDTH 396 0
DWIDTH 8 0
BBX 5 12 3 -4
BITMAP
18
18
00
10
10
30
60
C0
80
80
B0
60
ENDCHAR

STARTCHAR Agrave
ENCODING 192
SWIDTH 698 0
DWIDTH 13 0
BBX 14 17 0 0
BITMAP
00C0
0060
0010
0000
0000
0030
0070
00B0
00B0
0130
0230
07F0
0430
0830
1030
2030
F0FC
ENDCHAR

STARTCHAR Aacute
ENCODING 193
SWIDTH 698 0
DWIDTH 13 0
BBX 14 17 0 0
BITMAP
000C
0018
0020
0000
0000
0030
0070
00B0
00B0
0130
0230
07F0
0430
0830
1030
2030
F0FC
ENDCHAR

STARTCHAR Acircumflex
ENCODING 194
SWIDTH 698 0
DWIDTH 13 0
BBX 14 17 0 0
BITMAP
0018
0028
0048
0000
0000
0030
0070
00B0
00B0
0130
0230
07F0
0430
0830
1030
2030
F0FC
ENDCHAR

STARTCHAR Atilde
ENCODING 195
SWIDTH 698 0
DWIDTH 13 0
BBX 14 16 0 0
BITMAP
0074
00B8
0000
0000
0030
0070
00B0
00B0
0130
0230
07F0
0430
0830
1030
2030
F0FC
ENDCHAR

STARTCHAR Adieresis
ENCODING 196
SWIDTH 698 0
DWIDTH 13 0
BBX 14 16 0 0
BITMAP
006C
006C
0000
0000
0030
0070
00B0
00B0
0130
0230
07F0
0430
0830
1030
2030
F0FC
ENDCHAR

STARTCHAR Aring
ENCODING 197
SWIDTH 698 0
DWIDTH 13 0
BBX 14 17 0 0
BITMAP
0030
0048
0048
0030
0000
0030
0070
00B0
00B0
0130
0230
07F0
0430
0830
1030
2030
F0FC
ENDCHAR

STARTCHAR AE
ENCODING 198
SWIDTH 948 0
DWIDTH 18 0
BBX 18 12 0 0
BITMAP
00FFC0
007040
00B040
013000
026080
047F00
07E100
086000
10C000
20C040
40C080
F3FF80
ENDCHAR

STARTCHAR Ccedilla
ENCODING 199
SWIDTH 729 0
DWIDTH 14 0
BBX 12 16 2 -4
BITMAP
07D0
1C30
3010
6000
6000
C000
C000
C000
C000
6020
20C0
1F80
0400
0600
0300
1E00
ENDCHAR

STARTCHAR Egrave
ENCODING 200
SWIDTH 625 0
DWIDTH 12 0
BBX 12 17 0 0
BITMAP
0600
0300
0080
0000
0000
3FF0
0C10
0C10
0C00
1840
1F80
1880
1800
3000
3010
3020
FFE0
ENDCHAR

STARTCHAR Eacute
ENCODING 201
SWIDTH 625 0
DWIDTH 12 0
BBX 12 17 0 0
BITMAP
00C0
0180
0200
0000
0000
3FF0
0C10
0C10
0C00
1840
1F80
1880
1800
3000
3010
3020
FFE0
ENDCHAR

STARTCHAR Ecircumflex
ENCODING 202
SWIDTH 625 0
DWIDTH 12 0
BBX 12 17 0 0
BITMAP
00C0
0140
0240
0000
0000
3FF0
0C10
0C10
0C00
1840
1F80
1880
1800
3000
3010
3020
FFE0
ENDCHAR

STARTCHAR Edieresis
ENCODING 203
SWIDTH 625 0
DWIDTH 12 0
BBX 12 16 0 0
BITMAP
0660
0660
0000
0000
3FF0
0C10
0C10
0C00
1840
1F80
1880
1800
3000
3010
3020
FFE0
ENDCHAR

STARTCHAR Igrave
ENCODING 204
SWIDTH 323 0
DWIDTH 6 0
BBX 8 17 0 0
BITMAP
30
18
04
00
00
3F
0C
0C
0C
18
18
18
18
30
30
30
FC
ENDCHAR

STARTCHAR Iacute
ENCODING 205
SWIDTH 323 0
DWIDTH 6 0
BBX 8 17 0 0
BITMAP
03
06
08
00
00
3F
0C
0C
0C
18
18
18
18
30
30
30
FC
ENDCHAR

STARTCHAR Icircumflex
ENCODING 206
SWIDTH 323 0
DWIDTH 6 0
BBX 8 17 0 0
BITMAP
03
05
09
00
00
3F
0C
0C
0C
18
18
18
18
30
30
30
FC
ENDCHAR

STARTCHAR Idieresis
ENCODING 207
SWIDTH 323 0
DWIDTH 6 0
BBX 8 16 0 0
BITMAP
1B
1B
00
00
3F
0C
0C
0C
18
18
18
18
30
30
30
FC
ENDCHAR

STARTCHAR Eth
ENCODING 208
SWIDTH 760 0
DWIDTH 14 0
BBX 14 12 0 0
BITMAP
3FE0
0C38
0C18
0C0C
180C
180C
7F0C
1818
3018
3030
30E0
FF80
ENDCHAR

STARTCHAR Ntilde
ENCODING 209
SWIDTH 771 0
DWIDTH 15 0
BBX 17 16 0 0
BITMAP
00E800
017000
000000
000000
3C0F80
0E0200
0E0200
0B0200
138400
118400
10C400
106400
206800
203800
201800
F81800
ENDCHAR

STARTCHAR Ograve
ENCODING 210
SWIDTH 792 0
DWIDTH 15 0
BBX 13 17 2 0
BITMAP
0C00
0600
0100
0000
0000
07C0
1C20
3030
6018
6018
C018
C018
C030
C030
6060
21C0
1F00
ENDCHAR

STARTCHAR Oacute
ENCODING 211
SWIDTH 792 0
DWIDTH 15 0
BBX 13 17 2 0
BITMAP
0060
00C0
0100
0000
0000
07C0
1C20
3030
6018
6018
C018
C018
C030
C030
6060
21C0
1F00
ENDCHAR

STARTCHAR Ocircumflex
ENCODING 212
SWIDTH 792 0
DWIDTH 15 0
BBX 13 17 2 0
BITMAP
00C0
0140
0240
0000
0000
07C0
1C20
3030
6018
6018
C018
C018
C030
C030
6060
21C0
1F00
ENDCHAR

STARTCHAR Otilde
ENCODING 213
SWIDTH 792 0
DWIDTH 15 0
BBX 13 16 2 0
BITMAP
03A0
05C0
0000
0000
07C0
1C20
3030
6018
6018
C018
C018
C030
C030
6060
21C0
1F00
ENDCHAR

STARTCHAR Odieresis
ENCODING 214
SWIDTH 792 0
DWIDTH 15 0
BBX 13 16 2 0
BITMAP
0660
0660
0000
0000
07C0
1C20
3030
6018
6018
C018
C018
C030
C030
6060
21C0
1F00
ENDCHAR

STARTCHAR multiply
ENCODING 215
SWIDTH 667 0
DWIDTH 13 0
BBX 9 9 2 2
BITMAP
8080
4100
2200
1400
0800
1400
2200
4100
8080
ENDCHAR

STARTCHAR Oslash
ENCODING 216
SWIDTH 792 0
DWIDTH 15 0
BBX 13 13 2 -1
BITMAP
07C8
1C30
3030
6058
6098
C118
C218
C430
C830
7060
21C0
5F00
8000
ENDCHAR

STARTCHAR Ugrave
ENCODING 217
SWIDTH 729 0
DWIDTH 14 0
BBX 14 17 3 0
BITMAP
0C00
0600
0100
0000
0000
FC7C
3010
3010
3010
6020
6020
6020
C040
C040
C040
6180
3E00
ENDCHAR

STARTCHAR Uacute
ENCODING 218
SWIDTH 729 0
DWIDTH 14 0
BBX 14 17 3 0
BITMAP
00C0
0180
0200
0000
0000
FC7C
3010
3010
3010
6020
6020
6020
C040
C040
C040
6180
3E00
ENDCHAR

STARTCHAR Ucircumflex
ENCODING 219
SWIDTH 729 0
DWIDTH 14 0
BBX 14 17 3 0
BITMAP
00C0
0140
0240
0000
0000
FC7C
3010
3010
3010
6020
6020
6020
C040
C040
C040
6180
3E00
ENDCHAR

STARTCHAR Udieresis
ENCODING 220
SWIDTH 729 0
DWIDTH 14 0
BBX 14 16 3 0
BITMAP
0660
0660
0000
0000
FC7C
3010
3010
3010
6020
6020
6020
C040
C040
C040
6180
3E00
ENDCHAR

STARTCHAR Yacute
ENCODING 221
SWIDTH 625 0
DWIDTH 12 0
BBX 14 17 1 0
BITMAP
00C0
0180
0200
0000
0000
FC7C
3010
1820
1840
0C80
0D00
0600
0600
0600
0C00
0C00
3F00
ENDCHAR

STARTCHAR Thorn
ENCODING 222
SWIDTH 563 0
DWIDTH 11 0
BBX 11 12 1 0
BITMAP
3F00
0C00
0DC0
0E60
1860
1860
1860
18C0
38C0
3380
3000
FC00
ENDCHAR

STARTCHAR germandbls
ENCODING 223
SWIDTH 438 0
DWIDTH 8 0
BBX 12 17 -3 -4
BITMAP
00E0
0130
0330
0230
0660
0680
0640
0660
0460
0C60
0C60
0C40
0980
0800
0800
D000
E000
ENDCHAR

STARTCHAR agrave
ENCODING 224
SWIDTH 406 0
DWIDTH 8 0
BBX 8 13 0 0
BITMAP
18
0C
02
00
00
1F
33
66
66
CC
DC
ED
CE
ENDCHAR

STARTCHAR aacute
ENCODING 225
SWIDTH 406 0
DWIDTH 8 0
BBX 9 13 0 0
BITMAP
0180
0300
0400
0000
0000
1F00
3300
6600
6600
CC00
DC00
ED00
CE00
ENDCHAR

STARTCHAR acircumflex
ENCODING 226
SWIDTH 406 0
DWIDTH 8 0
BBX 8 13 0 0
BITMAP
03
05
09
00
00
1F
33
66
66
CC
DC
ED
CE
ENDCHAR

STARTCHAR atilde
ENCODING 227
SWIDTH 406 0
DWIDTH 8 0
BBX 9 12 0 0
BITMAP
0E80
1700
0000
0000
1F00
3300
6600
6600
CC00
DC00
ED00
CE00
ENDCHAR

STARTCHAR adieresis
ENCODING 228
SWIDTH 406 0
DWIDTH 8 0
BBX 8 12 0 0
BITMAP
1B
1B
00
00
1F
33
66
66
CC
DC
ED
CE
ENDCHAR

STARTCHAR aring
ENCODING 229
SWIDTH 406 0
DWIDTH 8 0
BBX 8 14 0 0
BITMAP
06
09
09
06
00
00
1F
33
66
66
CC
DC
ED
CE
ENDCHAR

STARTCHAR ae
ENCODING 230
SWIDTH 573 0
DWIDTH 11 0
BBX 10 8 1 0
BITMAP
0D80
36C0
6680
6F00
CC00
DC00
EC80
CF00
ENDCHAR

STARTCHAR ccedilla
ENCODING 231
SWIDTH 271 0
DWIDTH 5 0
BBX 6 11 0 -3
BITMAP
3C
64
40
C0
C0
C0
C8
70
20
30
E0
ENDCHAR

STARTCHAR egrave
ENCODING 232
SWIDTH 344 0
DWIDTH 7 0
BBX 6 13 1 0
BITMAP
60
30
08
00
00
38
6C
48
F0
C0
C0
C8
70
ENDCHAR

STARTCHAR eacute
ENCODING 233
SWIDTH 344 0
DWIDTH 7 0
BBX 6 13 1 0
BITMAP
0C
18
20
00
00
38
6C
48
F0
C0
C0
C8
70
ENDCHAR

STARTCHAR ecircumflex
ENCODING 234
SWIDTH 344 0
DWIDTH 7 0
BBX 6 13 1 0
BITMAP
0C
14
24
00
00
38
6C
48
F0
C0
C0
C8
70
ENDCHAR

STARTCHAR edieresis
ENCODING 235
SWIDTH 344 0
DWIDTH 7 0
BBX 7 12 1 0
BITMAP
36
36
00
00
38
6C
48
F0
C0
C0
C8
70
ENDCHAR

STARTCHAR igrave
ENCODING 236
SWIDTH 240 0
DWIDTH 5 0
BBX 5 13 0 0
BITMAP
60
30
08
00
00
70
B0
30
30
30
60
68
70
ENDCHAR

STARTCHAR iacute
ENCODING 237
SWIDTH 240 0
DWIDTH 5 0
BBX 6 13 0 0
BITMAP
0C
18
20
00
00
70
B0
30
30
30
60
68
70
ENDCHAR

STARTCHAR icircumflex
ENCODING 238
SWIDTH 240 0
DWIDTH 5 0
BBX 5 13 0 0
BITMAP
18
28
48
00
00
70
B0
30
30
30
60
68
70
ENDCHAR

STARTCHAR idieresis
ENCODING 239
SWIDTH 240 0
DWIDTH 5 0
BBX 6 12 0 0
BITMAP
6C
6C
00
00
70
B0
30
30
30
60
68
70
ENDCHAR

STARTCHAR eth
ENCODING 240
SWIDTH 417 0
DWIDTH 8 0
BBX 7 12 1 0
BITMAP
1A
0C
34
04
3C
6C
4C
CC
CC
C8
D8
70
ENDCHAR

STARTCHAR ntilde
ENCODING 241
SWIDTH 469 0
DWIDTH 9 0
BBX 9 12 0 0
BITMAP
0E80
1700
0000
0000
7300
B700
3B00
3300
6600
6600
6680
6700
ENDCHAR

STARTCHAR ograve
ENCODING 242
SWIDTH 396 0
DWIDTH 8 0
BBX 6 13 1 0
BITMAP
60
30
08
00
00
38
6C
4C
CC
CC
C8
D8
70
ENDCHAR

STARTCHAR oacute
ENCODING 243
SWIDTH 396 0
DWIDTH 8 0
BBX 7 13 1 0
BITMAP
06
0C
10
00
00
38
6C
4C
CC
CC
C8
D8
70
ENDCHAR

STARTCHAR ocircumflex
ENCODING 244
SWIDTH 396 0
DWIDTH 8 0
BBX 6 13 1 0
BITMAP
0C
14
24
00
00
38
6C
4C
CC
CC
C8
D8
70
ENDCHAR

STARTCHAR otilde
ENCODING 245
SWIDTH 396 0
DWIDTH 8 0
BBX 7 12 1 0
BITMAP
3A
5C
00
00
38
6C
4C
CC
CC
C8
D8
70
ENDCHAR

STARTCHAR odieresis
ENCODING 246
SWIDTH 396 0
DWIDTH 8 0
BBX 6 12 1 0
BITMAP
6C
6C
00
00
38
6C
4C
CC
CC
C8
D8
70
ENDCHAR

STARTCHAR divide
ENCODING 247
SWIDTH 667 0
DWIDTH 13 0
BBX 10 9 2 2
BITMAP
0C00
0C00
0000
0000
FFC0
0000
0000
0C00
0C00
ENDCHAR

STARTCHAR oslash
ENCODING 248
SWIDTH 396 0
DWIDTH 8 0
BBX 8 10 0 -1
BITMAP
01
1E
36
6E
6E
76
74
6C
78
80
ENDCHAR

STARTCHAR ugrave
ENCODING 249
SWIDTH 469 0
DWIDTH 9 0
BBX 9 13 0 0
BITMAP
3000
1800
0400
0000
0000
7300
B300
3300
3300
6600
6E00
7680
6700
ENDCHAR

STARTCHAR uacute
ENCODING 250
SWIDTH 469 0
DWIDTH 9 0
BBX 9 13 0 0
BITMAP
0300
0600
0800
0000
0000
7300
B300
3300
3300
6600
6E00
7680
6700
ENDCHAR

STARTCHAR ucircumflex
ENCODING 251
SWIDTH 469 0
DWIDTH 9 0
BBX 9 13 0 0
BITMAP
0300
0500
0900
0000
0000
7300
B300
3300
3300
6600
6E00
7680
6700
ENDCHAR

STARTCHAR udieresis
ENCODING 252
SWIDTH 469 0
DWIDTH 9 0
BBX 9 12 0 0
BITMAP
1B00
1B00
0000
0000
7300
B300
3300
3300
6600
6E00
7680
6700
ENDCHAR

STARTCHAR yacute
ENCODING 253
SWIDTH 438 0
DWIDTH 8 0
BBX 8 17 0 -4
BITMAP
03
06
08
00
00
67
B3
33
32
32
34
38
30
30
60
60
F0
ENDCHAR

STARTCHAR thorn
ENCODING 254
SWIDTH 438 0
DWIDTH 8 0
BBX 9 17 -1 -4
BITMAP
0400
1C00
0C00
0C00
1800
1B00
1D80
1980
3180
3180
3300
3300
7C00
6000
6000
6000
F000
ENDCHAR

STARTCHAR ydieresis
ENCODING 255
SWIDTH 438 0
DWIDTH 8 0
BBX 8 16 0 -4
BITMAP
1B
1B
00
00
67
B3
33
32
32
34
38
30
30
60
60
F0
ENDCHAR
ENDFONT
